<svg width="40" height="40" viewBox="0 0 40 40" fill="none" xmlns="http://www.w3.org/2000/svg">
<g clip-path="url(#clip0_70_707)">
<path d="M11.2083 36.4163C9.55333 36.4163 8.14653 35.837 6.98792 34.6784C5.82931 33.5198 5.25 32.113 5.25 30.458H0.708333L1.91667 25.208H8.375C8.79167 24.9858 9.23472 24.8122 9.70417 24.6872C10.1736 24.5622 10.6736 24.4997 11.2042 24.4997C11.7347 24.4997 12.2361 24.5622 12.7083 24.6872C13.1806 24.8122 13.625 24.9858 14.0417 25.208H21.2917L25.0417 8.83301H6.79167L7.05583 7.71717C7.32 6.49217 7.92528 5.4969 8.87167 4.73134C9.81833 3.96579 10.9167 3.58301 12.1667 3.58301H31.625L29.625 12.3747H34.4583L40 19.7497L37.7917 30.458H33.825C33.825 32.113 33.2465 33.5198 32.0896 34.6784C30.9326 35.837 29.5278 36.4163 27.875 36.4163C26.22 36.4163 24.8132 35.837 23.6546 34.6784C22.496 33.5198 21.9167 32.113 21.9167 30.458H17.1667C17.1667 32.1247 16.5874 33.5344 15.4288 34.6872C14.2701 35.84 12.8633 36.4163 11.2083 36.4163ZM27.4167 21.8747H33.8333L34.125 20.708L31.8333 17.6247H28.4221L27.4167 21.8747ZM25 9.04134L25.0417 8.83301L21.2917 25.208L21.3333 24.958L23.0417 17.6247L25 9.04134ZM-0.25 23.2913L1.04167 18.0413H12.1667L10.875 23.2913H-0.25ZM3.08333 15.958L4.375 10.708H17.1667L15.875 15.958H3.08333ZM11.2017 31.1663C11.4006 31.1663 11.5694 31.0991 11.7083 30.9647C11.8472 30.8302 11.9167 30.6636 11.9167 30.4647C11.9167 30.2658 11.8494 30.0969 11.715 29.958C11.5806 29.8191 11.4139 29.7497 11.215 29.7497C11.0161 29.7497 10.8472 29.8169 10.7083 29.9513C10.5694 30.0858 10.5 30.2525 10.5 30.4513C10.5 30.6502 10.5672 30.8191 10.7017 30.958C10.8361 31.0969 11.0028 31.1663 11.2017 31.1663ZM27.8683 31.1663C28.0672 31.1663 28.2361 31.0991 28.375 30.9647C28.5139 30.8302 28.5833 30.6636 28.5833 30.4647C28.5833 30.2658 28.5161 30.0969 28.3817 29.958C28.2472 29.8191 28.0806 29.7497 27.8817 29.7497C27.6828 29.7497 27.5139 29.8169 27.375 29.9513C27.2361 30.0858 27.1667 30.2525 27.1667 30.4513C27.1667 30.6502 27.2339 30.8191 27.3683 30.958C27.5028 31.0969 27.6694 31.1663 27.8683 31.1663Z" fill="white"/>
</g>
<defs>
<clipPath id="clip0_70_707">
<rect width="40" height="40" fill="white"/>
</clipPath>
</defs>
</svg>
