<svg width="40" height="40" viewBox="0 0 40 40" fill="none" xmlns="http://www.w3.org/2000/svg">
<g clip-path="url(#clip0_70_710)">
<path d="M9.95964 40.1667L1.91797 32.125L9.91797 24.125L13.668 27.8333L12.0013 29.5H28.043L26.3763 27.8333L30.0846 24.125L38.0846 32.125L30.0846 40.1667L26.3346 36.4583L28.043 34.75H11.9596L13.6263 36.4583L9.95964 40.1667ZM20.0013 16.25C18.6124 16.25 17.4319 15.7639 16.4596 14.7917C15.4874 13.8194 15.0013 12.6389 15.0013 11.25C15.0013 9.86111 15.4874 8.68056 16.4596 7.70833C17.4319 6.73611 18.6124 6.25 20.0013 6.25C21.3902 6.25 22.5707 6.73611 23.543 7.70833C24.5152 8.68056 25.0013 9.86111 25.0013 11.25C25.0013 12.6389 24.5152 13.8194 23.543 14.7917C22.5707 15.7639 21.3902 16.25 20.0013 16.25ZM3.54297 22.5417V0H36.418V22.5417H3.54297ZM11.5013 17.9167H28.4596C28.4596 17 28.786 16.2153 29.4388 15.5625C30.0916 14.9097 30.8763 14.5833 31.793 14.5833V7.91667C30.8763 7.91667 30.0916 7.59028 29.4388 6.9375C28.786 6.28472 28.4596 5.5 28.4596 4.58333H11.5013C11.5013 5.5 11.1749 6.28472 10.5221 6.9375C9.86936 7.59028 9.08464 7.91667 8.16797 7.91667V14.5833C9.08464 14.5833 9.86936 14.9097 10.5221 15.5625C11.1749 16.2153 11.5013 17 11.5013 17.9167Z" fill="white"/>
</g>
<defs>
<clipPath id="clip0_70_710">
<rect width="40" height="40" fill="white"/>
</clipPath>
</defs>
</svg>
