<svg width="40" height="40" viewBox="0 0 40 40" fill="none" xmlns="http://www.w3.org/2000/svg">
<path d="M20.0404 38.0837C17.5404 38.0837 15.1931 37.6114 12.9987 36.667C10.8043 35.7225 8.88759 34.4309 7.2487 32.792C5.60981 31.1531 4.31814 29.2364 3.3737 27.042C2.42925 24.8475 1.95703 22.5003 1.95703 20.0003C1.95703 17.5003 2.42925 15.1531 3.3737 12.9587C4.31814 10.7642 5.60981 8.84755 7.2487 7.20866C8.88759 5.56977 10.8043 4.2781 12.9987 3.33366C15.1931 2.38921 17.5404 1.91699 20.0404 1.91699C22.5404 1.91699 24.8806 2.38921 27.0612 3.33366C29.2418 4.2781 31.1515 5.56977 32.7904 7.20866C34.4293 8.84755 35.7209 10.7642 36.6654 12.9587C37.6098 15.1531 38.082 17.5003 38.082 20.0003C38.082 22.5003 37.6098 24.8475 36.6654 27.042C35.7209 29.2364 34.4293 31.1531 32.7904 32.792C31.1515 34.4309 29.2418 35.7225 27.0612 36.667C24.8806 37.6114 22.5404 38.0837 20.0404 38.0837ZM15.3737 31.9587L16.957 28.292C15.7348 27.8475 14.6723 27.167 13.7695 26.2503C12.8668 25.3337 12.1793 24.2781 11.707 23.0837L7.95703 24.542C8.6237 26.2642 9.59592 27.7712 10.8737 29.0628C12.1515 30.3545 13.6515 31.3198 15.3737 31.9587ZM11.707 16.917C12.0959 15.667 12.7556 14.5975 13.6862 13.7087C14.6168 12.8198 15.707 12.1392 16.957 11.667L15.3737 7.95866C13.6515 8.62533 12.1515 9.61144 10.8737 10.917C9.59592 12.2225 8.6237 13.7364 7.95703 15.4587L11.707 16.917ZM19.9987 23.5837C20.9987 23.5837 21.8459 23.2364 22.5404 22.542C23.2348 21.8475 23.582 21.0003 23.582 20.0003C23.582 19.0003 23.2348 18.1531 22.5404 17.4587C21.8459 16.7642 20.9987 16.417 19.9987 16.417C18.9987 16.417 18.1515 16.7642 17.457 17.4587C16.7626 18.1531 16.4154 19.0003 16.4154 20.0003C16.4154 21.0003 16.7626 21.8475 17.457 22.542C18.1515 23.2364 18.9987 23.5837 19.9987 23.5837ZM24.6237 31.9587C26.3459 31.3198 27.8529 30.3614 29.1445 29.0837C30.4362 27.8059 31.4015 26.3059 32.0404 24.5837L28.2904 23.0837C27.8737 24.3059 27.207 25.3545 26.2904 26.2295C25.3737 27.1045 24.3181 27.792 23.1237 28.292L24.6237 31.9587ZM28.2904 16.8753L32.0404 15.3753C31.4015 13.6531 30.4293 12.1531 29.1237 10.8753C27.8181 9.59755 26.3181 8.62533 24.6237 7.95866L23.1237 11.7503C24.3459 12.167 25.3945 12.8267 26.2695 13.7295C27.1445 14.6323 27.8181 15.6809 28.2904 16.8753Z" fill="white"/>
</svg>
